<svg width="40" height="40" viewBox="0 0 40 40" fill="none" xmlns="http://www.w3.org/2000/svg">
<g clip-path="url(#clip0_16_584)">
<path d="M34.7673 20.8103C35.7651 20.8103 36.7265 20.5219 37.5733 19.9531C38.9718 19.0067 39.9448 17.2889 39.9838 15.5002C40.0273 14.5962 39.9838 13.6337 39.8511 12.5568C39.8122 12.2466 39.6542 11.9652 39.407 11.774C39.1621 11.5829 38.8508 11.5016 38.5395 11.5371C37.3465 11.6906 36.124 12.2581 35.1054 13.1464C35.0573 12.7594 34.968 12.3653 34.8868 11.9757C36.0312 11.4185 36.9181 10.5167 37.3765 9.38447C38.0288 7.81432 37.8228 5.878 36.8363 4.33192C36.2847 3.46333 35.6942 2.66911 35.0831 1.97216C34.6551 1.4835 33.9159 1.43889 33.4306 1.86232C32.3732 2.78818 31.6591 4.13168 31.3661 5.75902C31.1212 7.21354 31.2631 8.56166 31.7941 9.77587C34.4101 15.5488 32.1648 22.581 26.9121 25.8639C26.2529 26.2873 25.8593 27.0072 25.8593 27.8804C25.8593 28.5281 26.3651 29.034 27.0128 29.034C27.6606 29.034 28.1664 28.4904 28.1664 27.8426C28.2866 27.7677 28.401 27.6876 28.5183 27.6092C29.455 28.4318 30.5949 28.8832 31.8216 28.884H31.8606C34.7354 28.884 36.6183 26.5265 37.8206 23.9048C38.0861 23.3292 37.8435 22.6482 37.2782 22.3667C36.2082 21.8355 34.9974 21.6806 33.6041 21.8506C33.7843 21.4934 33.9519 21.1286 34.1053 20.7546C34.3267 20.7825 34.5487 20.8103 34.7673 20.8103V20.8103Z" fill="#FF9100"/>
<path d="M12.6986 25.5996C7.14866 21.6562 5.93702 14.8977 8.27896 9.66721L8.26678 9.66135C8.75802 8.48847 8.89232 7.1773 8.65201 5.74763C8.36365 4.13513 7.65178 2.79163 6.58983 1.86241C6.1046 1.43898 5.36531 1.48359 4.93734 1.97226C4.32625 2.66921 3.73571 3.46342 3.18415 4.33084C2.19767 5.87919 1.99166 7.81668 2.64173 9.3719C3.09938 10.5116 3.9861 11.4155 5.12883 11.9737C5.04914 12.3668 4.97515 12.7588 4.92687 13.1573C3.90336 12.2615 2.65689 11.691 1.46041 11.537C1.15369 11.5038 0.840177 11.5828 0.592913 11.7739C0.345649 11.965 0.185494 12.2477 0.148853 12.5567C0.0183852 13.621 -0.0251302 14.5846 0.0137759 15.4807C0.0641662 17.3346 1.0715 19.0593 2.46079 19.9622C3.27329 20.524 4.23461 20.8113 5.24172 20.8113C5.47945 20.8113 5.72038 20.7829 5.9614 20.7507C6.10843 21.1148 6.26452 21.4734 6.43991 21.8253C5.38335 21.6853 4.05727 21.7185 2.76064 22.3631C2.47907 22.5027 2.26626 22.751 2.16783 23.0509C2.06939 23.3507 2.09915 23.6769 2.24337 23.9561C2.65079 24.7309 3.13368 25.6281 3.72883 26.4315C4.72391 27.8823 6.35694 28.8771 8.28123 28.8771C9.44982 28.8771 10.5728 28.4279 11.4992 27.6228C11.6395 27.722 11.7713 27.8156 11.7946 27.8323L11.7968 27.8803C11.7968 28.528 12.321 29.0522 12.9687 29.0522C13.6164 29.0522 14.1406 28.528 14.1406 27.8803C14.1406 26.6204 13.3417 26.0551 12.6986 25.5996V25.5996Z" fill="#FABE2C"/>
<path d="M19.9999 29.0523C19.3522 29.0523 18.8281 28.5282 18.8281 27.8804V23.1929C18.8281 22.5452 19.3522 22.0211 19.9999 22.0211C20.6477 22.0211 21.1718 22.5452 21.1718 23.1929V27.8804C21.1718 28.5282 20.6477 29.0523 19.9999 29.0523Z" fill="#FABE2C"/>
<path d="M21.1718 27.8804V23.1929C21.1718 22.5452 20.6476 22.0211 19.9999 22.0211V29.0523C20.6476 29.0523 21.1718 28.5282 21.1718 27.8804Z" fill="#FF9100"/>
<path d="M20.0113 24.3647C19.9037 24.3647 19.7939 24.3499 19.6908 24.3201C14.3534 22.7969 10.6249 17.8634 10.6249 12.3222V5.61487C10.6249 5.19831 10.847 4.81261 11.2086 4.60323C11.5702 4.39152 12.0188 4.39152 12.3759 4.59636C12.3941 4.60667 14.1955 5.61487 15.8983 5.61487C17.1274 5.61487 18.6747 4.1741 19.1187 3.66941C19.5673 3.1659 20.4325 3.1659 20.8811 3.66941C21.3252 4.1741 22.8724 5.61487 24.1015 5.61487C25.7929 5.61487 27.6034 4.60777 27.6217 4.59753C27.9856 4.39152 28.4319 4.39269 28.7913 4.60097C29.153 4.81151 29.375 5.19722 29.375 5.61495V12.328C29.375 17.8658 25.658 22.797 20.3342 24.319C20.2288 24.3498 20.1189 24.3647 20.0113 24.3647V24.3647Z" fill="#FED843"/>
<path d="M20.0113 24.3648C20.1189 24.3648 20.2287 24.3499 20.334 24.319C25.6578 22.797 29.3748 17.8657 29.3748 12.328V5.61488C29.3748 5.19714 29.1528 4.81152 28.7912 4.6009C28.4318 4.39262 27.9855 4.39145 27.6216 4.59746C27.6033 4.60777 25.7928 5.6148 24.1014 5.6148C22.8723 5.6148 21.325 4.17403 20.881 3.66934C20.6567 3.41755 20.3283 3.29169 19.9998 3.29169V24.3631C20.0037 24.3632 20.0075 24.3648 20.0113 24.3648V24.3648Z" fill="#FABE2C"/>
<path d="M20.0091 19.3374C19.8191 19.3374 19.6314 19.2916 19.4574 19.2001C16.9009 17.8394 15.3124 15.2038 15.3124 12.3222V11.4513C15.3124 10.8391 15.7839 10.3309 16.3928 10.2829C17.3952 10.2051 18.4206 9.88579 19.4438 9.33532C19.7917 9.14767 20.2082 9.14767 20.5561 9.33532C21.5792 9.88579 22.6046 10.2051 23.6071 10.2829C24.2159 10.3309 24.6874 10.8391 24.6874 11.4513V12.328C24.6874 15.2027 23.1059 17.836 20.563 19.199C20.389 19.2916 20.1991 19.3374 20.0091 19.3374V19.3374Z" fill="#FABE2C"/>
<path d="M20.009 19.3374C20.199 19.3374 20.3889 19.2917 20.5629 19.199C23.1058 17.836 24.6874 15.2027 24.6874 12.328V11.4513C24.6874 10.8391 24.2159 10.331 23.6071 10.2829C22.6046 10.2051 21.5792 9.8858 20.556 9.33533C20.3821 9.2415 20.191 9.19455 19.9999 9.19455V19.3352C20.003 19.3352 20.0059 19.3374 20.009 19.3374V19.3374Z" fill="#FF9100"/>
<path d="M27.0311 26.7085H12.9687C12.3124 26.7085 11.7968 27.224 11.7968 27.8804V37.2553H28.203V27.8804C28.203 27.224 27.6874 26.7085 27.0311 26.7085Z" fill="#646D73"/>
<path d="M27.0311 26.7085H19.9999V37.2554H28.203V27.8804C28.203 27.224 27.6875 26.7085 27.0311 26.7085Z" fill="#474F54"/>
<path d="M22.3437 33.7397H17.6562C17.0085 33.7397 16.4843 33.2156 16.4843 32.5679C16.4843 31.9201 17.0085 31.396 17.6562 31.396H22.3437C22.9914 31.396 23.5156 31.9201 23.5156 32.5679C23.5156 33.2156 22.9914 33.7397 22.3437 33.7397Z" fill="#FED843"/>
<path d="M22.3436 31.396H19.9999V33.7397H22.3436C22.9914 33.7397 23.5155 33.2156 23.5155 32.5679C23.5155 31.9201 22.9914 31.396 22.3436 31.396Z" fill="#FABE2C"/>
<path d="M29.3748 38.4272H10.6249C9.9772 38.4272 9.45306 37.903 9.45306 37.2553C9.45306 36.6076 9.9772 36.0834 10.6249 36.0834H29.3748C30.0225 36.0834 30.5467 36.6076 30.5467 37.2553C30.5467 37.903 30.0225 38.4272 29.3748 38.4272Z" fill="#474F54"/>
<path d="M29.3749 36.0834H19.9999V38.4272H29.3749C30.0226 38.4272 30.5468 37.903 30.5468 37.2553C30.5468 36.6076 30.0226 36.0834 29.3749 36.0834Z" fill="#32393F"/>
</g>
<defs>
<clipPath id="clip0_16_584">
<rect width="40" height="40" fill="white"/>
</clipPath>
</defs>
</svg>
