<svg width="40" height="40" viewBox="0 0 40 40" fill="none" xmlns="http://www.w3.org/2000/svg">
<g clip-path="url(#clip0_16_608)">
<path d="M40 20C40 22.9584 39.3576 25.7666 38.205 28.2932C36.2344 32.6123 32.7722 36.1069 28.4775 38.1201C27.6996 38.4842 26.8939 38.8 26.0645 39.0628C25.1315 39.361 24.169 39.5901 23.1812 39.7476C23.1772 39.7485 23.1723 39.7495 23.168 39.7495C22.6834 39.827 22.1942 39.8865 21.6989 39.9283C21.5933 39.9371 21.4874 39.9454 21.3812 39.9527C21.2317 39.9625 21.0815 39.9713 20.9305 39.978C20.6219 39.9927 20.3119 40 20 40C19.6799 40 19.3625 39.9927 19.0466 39.9771C18.9038 39.9707 18.7607 39.9625 18.6179 39.9518C18.511 39.9445 18.4048 39.9371 18.2986 39.9283C17.7917 39.8859 17.2897 39.8236 16.7944 39.7437C16.5576 39.7052 16.3217 39.6637 16.0883 39.617C15.0751 39.4162 14.0906 39.1397 13.1396 38.7918C12.5885 38.591 12.049 38.3664 11.5216 38.1192C11.3422 38.035 11.1633 37.9477 10.986 37.8571C10.5307 37.627 10.0858 37.3795 9.65149 37.1158C7.47589 35.7983 5.5722 34.0775 4.04236 32.0572C3.12408 30.8441 2.34131 29.5233 1.716 28.1158C0.613098 25.636 0 22.8897 0 20C0 8.95416 8.95416 0 20 0C31.0458 0 40 8.95416 40 20Z" fill="#FFE152"/>
<path d="M16.0883 25.9543V39.617C15.0751 39.4162 14.0906 39.1397 13.1396 38.7918C12.5885 38.591 12.049 38.3664 11.5216 38.1192C11.3422 38.035 11.1633 37.9477 10.986 37.8571C10.5307 37.627 10.0858 37.3795 9.65149 37.1158C7.47589 35.7983 5.5722 34.0775 4.04236 32.0572C3.12408 30.8441 2.34131 29.5233 1.716 28.1158V25.9543C1.716 23.4467 3.41888 21.3364 5.73151 20.7184C5.81635 20.6955 5.90118 20.6741 5.98785 20.6564C6.21704 20.6058 6.45294 20.5713 6.69312 20.5518C6.83929 20.5405 6.987 20.5338 7.13623 20.5338H10.6668C11.0611 20.5338 11.4456 20.5756 11.8164 20.6564C11.8375 20.6604 11.8588 20.6653 11.8799 20.6702C11.9421 20.6842 12.005 20.6995 12.066 20.7159C12.0679 20.7169 12.0694 20.7169 12.0709 20.7175C12.6816 20.8807 13.2489 21.1478 13.7543 21.4987C15.1648 22.4774 16.0883 24.1077 16.0883 25.9543Z" fill="#2BA1CF"/>
<path d="M16.0883 25.9543V39.617C15.0751 39.4162 14.0906 39.1397 13.1396 38.7918C12.5885 38.591 12.049 38.3664 11.5216 38.1192C11.3422 38.035 11.1633 37.9477 10.986 37.8571C10.5307 37.627 10.0858 37.3795 9.65149 37.1158C7.47589 35.7983 5.5722 34.0775 4.04236 32.0572V25.9543C4.04236 23.4467 5.74524 21.3364 8.05786 20.7184C8.14301 20.6955 8.22784 20.6741 8.31421 20.6564C8.5437 20.6058 8.7796 20.5713 9.01947 20.5518C9.16565 20.5405 9.31335 20.5338 9.46289 20.5338H10.6668C11.0611 20.5338 11.4456 20.5756 11.8164 20.6564C11.8375 20.6604 11.8588 20.6653 11.8799 20.6702C11.9421 20.6842 12.005 20.6995 12.066 20.7159C12.0679 20.7169 12.0694 20.7169 12.0709 20.7175C12.6816 20.8807 13.2489 21.1478 13.7543 21.4987C15.1648 22.4774 16.0883 24.1077 16.0883 25.9543Z" fill="#66BAED"/>
<path d="M12.0844 20.6561L12.0715 20.7175L10.4498 28.2599C10.2942 28.9847 9.65637 29.5102 8.91541 29.5108C8.91083 29.5108 8.90656 29.5108 8.90228 29.5108C8.8974 29.5108 8.89282 29.5108 8.88794 29.5108C8.14667 29.5102 7.50916 28.9847 7.35352 28.2599L5.73181 20.7181L5.71899 20.6561H12.0844Z" fill="#F2F0EC"/>
<path d="M8.90167 22.753L6.46118 24.1092L5.71899 20.6561L7.23541 19.7632" fill="#D8D5D0"/>
<path d="M8.90167 22.753L11.3422 24.1092L12.0844 20.6561L10.5679 19.7632" fill="#D8D5D0"/>
<path d="M1.6153 19.2273V11.0522C1.6153 10.2216 1.75385 9.40765 2.02728 8.63312C3.05054 5.72174 5.81329 3.76495 8.90198 3.76495C9.28467 3.76495 9.66644 3.79456 10.0375 3.85315C11.7343 4.11835 13.2913 4.98444 14.4202 6.29211C15.5609 7.61383 16.1893 9.3042 16.1893 11.0522V19.2273" fill="#CC7A3B"/>
<path d="M4.61273 11.3715C4.61273 14.263 6.30615 17.6083 7.23602 19.2273H1.61499V11.0522C1.61499 10.2219 1.75385 9.40796 2.02698 8.63312C3.04413 5.73853 5.78156 3.78754 8.84888 3.76556C6.60858 3.82141 4.61273 7.41577 4.61273 11.3715Z" fill="#A35418"/>
<path d="M10.8362 18.4457V20.8194C10.8362 21.6882 10.2634 22.4228 9.47418 22.6666C9.29352 22.7228 9.10095 22.753 8.90198 22.753C7.83386 22.753 6.96838 21.8875 6.96838 20.8194V18.4457H10.8362Z" fill="#EAB599"/>
<path d="M10.8362 20.6689V20.8194C10.8362 21.6882 10.2634 22.4228 9.47418 22.6666C8.76221 22.4478 8.22693 21.8286 8.12805 21.0712C8.25714 21.0791 8.38715 21.0831 8.51746 21.0831C8.88336 21.0831 9.24225 21.0541 9.59137 20.9967C10.022 20.9274 10.4382 20.8167 10.8362 20.6689Z" fill="#F6CAAE"/>
<path d="M3.59711 14.556C3.59711 15.4514 2.94312 16.1938 2.08649 16.3315C1.9931 16.3467 1.89667 16.3547 1.7984 16.3547C0.805054 16.3547 0 15.5496 0 14.556C0 13.5626 0.805054 12.7576 1.7984 12.7576C1.89667 12.7576 1.9931 12.7655 2.08649 12.7808C2.94312 12.9184 3.59711 13.6606 3.59711 14.556Z" fill="#F6CAAE"/>
<path d="M3.59711 14.556C3.59711 15.4514 2.94312 16.1938 2.08649 16.3315C1.93115 15.766 1.84784 15.1706 1.84784 14.556C1.84784 13.9417 1.93115 13.3463 2.08649 12.7808C2.94312 12.9184 3.59711 13.6606 3.59711 14.556Z" fill="#EAB599"/>
<path d="M2.44141 14.556C2.44141 14.9112 2.15363 15.199 1.7984 15.199C1.44348 15.199 1.1557 14.9112 1.1557 14.556C1.1557 14.201 1.44348 13.9133 1.7984 13.9133C2.15363 13.9133 2.44141 14.201 2.44141 14.556Z" fill="#EAB599"/>
<path d="M13.5202 12.2595V18.4418C12.5647 19.3539 11.3394 19.9857 9.9762 20.2054C9.96552 20.2072 9.95392 20.209 9.94324 20.2109C9.60449 20.2649 9.2569 20.2917 8.90198 20.2917C5.2066 20.2917 2.21069 17.2958 2.21069 13.6005V11.0522C2.21069 10.726 2.23389 10.405 2.27905 10.0912C3.87115 11.2363 6.15387 11.123 7.60834 9.74854C8.0899 9.29352 8.42468 8.75183 8.61389 8.17719C8.71918 9.18335 9.17938 10.1627 9.99512 10.9338C10.9662 11.8506 12.2491 12.2928 13.5202 12.2595Z" fill="#EAB599"/>
<path d="M13.5202 12.2595V18.4418C12.5647 19.3539 11.3394 19.9857 9.9762 20.2054C9.96552 20.2072 9.95392 20.209 9.94324 20.2109C6.74255 19.7107 4.29443 16.9409 4.29443 13.6005V11.0522C4.29443 10.9845 4.29565 10.9171 4.2981 10.8499C5.47791 10.9708 6.70349 10.6039 7.60834 9.74823C8.0899 9.29352 8.42468 8.75153 8.61389 8.17719C8.71918 9.18335 9.17938 10.1627 9.99512 10.9338C10.9662 11.8506 12.2491 12.2928 13.5202 12.2595Z" fill="#F6CAAE"/>
<path d="M12.496 13.0353C12.496 12.4213 11.9983 11.9238 11.3846 11.9238C10.7709 11.9238 10.2731 12.4213 10.2731 13.0353" fill="#EAB599"/>
<path d="M7.53204 13.0353C7.53204 12.4213 7.0343 11.9238 6.42059 11.9238C5.80688 11.9238 5.30945 12.4213 5.30945 13.0353" fill="#EAB599"/>
<path d="M7.17987 13.5083C7.17987 13.9276 6.8399 14.2676 6.42059 14.2676C6.00128 14.2676 5.66162 13.9276 5.66162 13.5083C5.66162 13.089 6.00128 12.7493 6.42059 12.7493C6.8399 12.7493 7.17987 13.089 7.17987 13.5083Z" fill="#3D4159"/>
<path d="M12.1436 13.5083C12.1436 13.9276 11.8039 14.2676 11.3846 14.2676C10.9653 14.2676 10.6256 13.9276 10.6256 13.5083C10.6256 13.089 10.9653 12.7493 11.3846 12.7493C11.8039 12.7493 12.1436 13.089 12.1436 13.5083Z" fill="#3D4159"/>
<path d="M9.66187 15.4196H8.14362C7.96265 15.4196 7.81616 15.2728 7.81616 15.0922C7.81616 14.9115 7.96265 14.7647 8.14362 14.7647H9.66187C9.84253 14.7647 9.98901 14.9115 9.98901 15.0922C9.98901 15.2728 9.84253 15.4196 9.66187 15.4196Z" fill="#EAB599"/>
<path d="M8.90257 17.4915C8.34227 17.4915 7.78197 17.3511 7.2711 17.07C7.12706 16.991 7.07457 16.81 7.15361 16.666C7.23296 16.5219 7.41393 16.4694 7.55797 16.5485C8.39995 17.0114 9.4052 17.0114 10.2472 16.5485C10.3912 16.4691 10.5722 16.5219 10.6515 16.666C10.7306 16.81 10.6781 16.991 10.534 17.07C10.0232 17.3511 9.46288 17.4915 8.90257 17.4915Z" fill="#EAB599"/>
<path d="M7.02515 13.3743C7.02515 13.5541 6.87927 13.6996 6.69983 13.6996C6.52008 13.6996 6.37451 13.5541 6.37451 13.3743C6.37451 13.1946 6.52008 13.049 6.69983 13.049C6.87927 13.049 7.02515 13.1946 7.02515 13.3743Z" fill="white"/>
<path d="M12.0261 13.3743C12.0261 13.5541 11.8805 13.6996 11.701 13.6996C11.5213 13.6996 11.3757 13.5541 11.3757 13.3743C11.3757 13.1946 11.5213 13.049 11.701 13.049C11.8805 13.049 12.0261 13.1946 12.0261 13.3743Z" fill="white"/>
<path d="M13.457 15.3574C13.457 15.8176 13.0838 16.1908 12.6233 16.1908C12.1631 16.1908 11.7899 15.8176 11.7899 15.3574C11.7899 14.8969 12.1631 14.5236 12.6233 14.5236C13.0838 14.5236 13.457 14.8969 13.457 15.3574Z" fill="#EAB599"/>
<path d="M6.01471 15.3574C6.01471 15.8176 5.64178 16.1908 5.18127 16.1908C4.72107 16.1908 4.34784 15.8176 4.34784 15.3574C4.34784 14.8969 4.72107 14.5236 5.18127 14.5236C5.64178 14.5236 6.01471 14.8969 6.01471 15.3574Z" fill="#EAB599"/>
<path d="M38.205 25.7895V28.2932C36.2344 32.6123 32.7722 36.1069 28.4775 38.1201C27.6996 38.4842 26.8939 38.8 26.0645 39.0628C25.1315 39.361 24.169 39.5901 23.1812 39.7476C23.1772 39.7485 23.1723 39.7495 23.168 39.7495V25.7895C23.168 22.814 25.4596 20.3729 28.3755 20.1379C28.5291 20.1248 28.6832 20.1193 28.8391 20.1193H32.5323C32.9691 20.1193 33.3942 20.1672 33.8025 20.2612C36.3232 20.8374 38.205 23.0948 38.205 25.7895Z" fill="#BFD5DE"/>
<path d="M38.205 25.7895V28.2932C36.2344 32.6123 32.7722 36.1069 28.4775 38.1201C27.6996 38.4842 26.8939 38.8 26.0645 39.0628V25.7895C26.0645 22.6581 28.6041 20.1193 31.7365 20.1193H32.533C35.6662 20.1193 38.205 22.6581 38.205 25.7895Z" fill="#DDE8ED"/>
<path d="M25.1355 13.8644C25.1355 14.8013 24.4513 15.578 23.5553 15.722C23.4573 15.7379 23.3566 15.7462 23.2538 15.7462C22.2144 15.7462 21.3721 14.9039 21.3721 13.8644C21.3721 12.825 22.2144 11.9827 23.2538 11.9827C23.3566 11.9827 23.4573 11.991 23.5553 12.0068C24.4513 12.1512 25.1355 12.9279 25.1355 13.8644Z" fill="#D3A489"/>
<path d="M32.2089 22.1649L30.6863 24.6069L29.1638 22.1649" fill="#F74F4F"/>
<path d="M32.7347 31.5051L30.6863 34.09L28.6377 31.5051L30.6866 23.9716L32.7347 31.5051Z" fill="#F74F4F"/>
<path d="M25.1355 13.8644C25.1355 14.8013 24.4513 15.578 23.5553 15.722C23.3926 15.1303 23.3057 14.5074 23.3057 13.8644C23.3057 13.2217 23.3926 12.5989 23.5553 12.0068C24.4513 12.1512 25.1355 12.9279 25.1355 13.8644Z" fill="#BF8E75"/>
<path d="M23.9264 13.8644C23.9264 14.2358 23.6252 14.537 23.2538 14.537C22.8824 14.537 22.5815 14.2358 22.5815 13.8644C22.5815 13.493 22.8824 13.1921 23.2538 13.1921C23.6252 13.1921 23.9264 13.493 23.9264 13.8644Z" fill="#BF8E75"/>
<path d="M30.6857 22.4405L28.1326 23.8596L27.356 20.2466L28.9423 19.3121" fill="#BFD5DE"/>
<path d="M30.6857 22.4405L33.2391 23.8596L34.0158 20.2466L32.4292 19.3121" fill="#BFD5DE"/>
<path d="M36.2366 13.8644C36.2366 14.8013 36.9208 15.578 37.8168 15.722C37.9147 15.7379 38.0154 15.7462 38.1183 15.7462C39.1577 15.7462 40 14.9039 40 13.8644C40 12.825 39.1577 11.9827 38.1183 11.9827C38.0154 11.9827 37.9147 11.991 37.8168 12.0068C36.9208 12.1512 36.2366 12.9279 36.2366 13.8644Z" fill="#D3A489"/>
<path d="M36.2366 13.8644C36.2366 14.8013 36.9208 15.578 37.8168 15.722C37.9797 15.1303 38.0664 14.5074 38.0664 13.8644C38.0664 13.2217 37.9797 12.5989 37.8168 12.0068C36.9208 12.1512 36.2366 12.9279 36.2366 13.8644Z" fill="#BF8E75"/>
<path d="M38.7909 13.8644C38.7909 14.2358 38.4897 14.537 38.1183 14.537C37.7469 14.537 37.4457 14.2358 37.4457 13.8644C37.4457 13.493 37.7469 13.1921 38.1183 13.1921C38.4897 13.1921 38.7909 13.493 38.7909 13.8644Z" fill="#BF8E75"/>
<path d="M37.6874 12.8644C37.6874 16.3483 35.1422 19.2386 31.8097 19.7751C31.4444 19.8352 31.069 19.8654 30.686 19.8654C26.8192 19.8654 23.685 16.7313 23.685 12.8644C23.685 11.0348 24.3204 8.28827 25.4694 7.04101C26.7487 5.65216 28.6487 5.86303 30.686 5.86303C31.069 5.86303 31.4441 5.89355 31.8097 5.95367C35.1422 6.49017 37.6874 9.38019 37.6874 12.8644Z" fill="#BF8E75"/>
<path d="M32.7097 17.9343V20.4175C32.7097 21.3266 32.1103 22.095 31.2845 22.3502C31.0956 22.4088 30.8942 22.4405 30.6857 22.4405C29.5685 22.4405 28.6627 21.5347 28.6627 20.4175V17.9343H32.7097Z" fill="#BF8E75"/>
<path d="M32.7097 20.26V20.4175C32.7097 21.3266 32.1103 22.095 31.2845 22.3502C30.5396 22.1213 29.9796 21.4734 29.8761 20.6808C30.0113 20.6891 30.1471 20.6934 30.2838 20.6934C30.6665 20.6934 31.0419 20.6628 31.4075 20.603C31.8579 20.5304 32.2931 20.4147 32.7097 20.26Z" fill="#D3A489"/>
<path d="M37.6874 12.8644C37.6874 16.3483 35.1422 19.2386 31.8097 19.7751C28.4775 19.2386 25.9323 16.3483 25.9323 12.8644C25.9323 10.719 26.8973 8.79883 28.4174 7.51434C29.3652 6.71295 30.5295 6.15967 31.8097 5.95337C34.9164 6.45355 37.3398 9.00024 37.6529 12.1661C37.6758 12.3959 37.6874 12.6291 37.6874 12.8644Z" fill="#D3A489"/>
<path d="M30.6863 16.3126C30.0998 16.3126 29.5138 16.1658 28.9795 15.8719C28.8284 15.7892 28.7735 15.5997 28.8565 15.4489C28.9392 15.2982 29.1287 15.2432 29.2795 15.3262C30.1602 15.8102 31.2122 15.8102 32.0932 15.3262C32.2437 15.2432 32.4332 15.2982 32.5159 15.4489C32.5989 15.5997 32.5439 15.7892 32.3932 15.8719C31.8588 16.1658 31.2723 16.3126 30.6863 16.3126Z" fill="#BF8E75"/>
<path d="M29.1953 12.457C29.1953 12.8955 28.8397 13.251 28.4009 13.251C27.9623 13.251 27.6068 12.8955 27.6068 12.457C27.6068 12.0181 27.9623 11.6626 28.4009 11.6626C28.8397 11.6626 29.1953 12.0181 29.1953 12.457Z" fill="#3D4159"/>
<path d="M33.7656 12.457C33.7656 12.8955 33.41 13.251 32.9715 13.251C32.5327 13.251 32.1771 12.8955 32.1771 12.457C32.1771 12.0181 32.5327 11.6626 32.9715 11.6626C33.41 11.6626 33.7656 12.0181 33.7656 12.457Z" fill="#3D4159"/>
<path d="M29.0332 12.3166C29.0332 12.5046 28.8809 12.6572 28.6929 12.6572C28.5049 12.6572 28.3527 12.5046 28.3527 12.3166C28.3527 12.1289 28.5049 11.9763 28.6929 11.9763C28.8809 11.9763 29.0332 12.1289 29.0332 12.3166Z" fill="white"/>
<path d="M33.6426 12.3166C33.6426 12.5046 33.4903 12.6572 33.3023 12.6572C33.1143 12.6572 32.962 12.5046 32.962 12.3166C32.962 12.1289 33.1143 11.9763 33.3023 11.9763C33.4903 11.9763 33.6426 12.1289 33.6426 12.3166Z" fill="white"/>
<path d="M31.4804 14.4565H29.892C29.7028 14.4565 29.5493 14.303 29.5493 14.1138C29.5493 13.9246 29.7028 13.7714 29.892 13.7714H31.4804C31.6696 13.7714 31.8231 13.9246 31.8231 14.1138C31.8228 14.303 31.6696 14.4565 31.4804 14.4565Z" fill="#BF8E75"/>
<path d="M32.9913 25.6036H36.0434V26.5378H32.9913V25.6036Z" fill="#BFD5DE"/>
<path d="M30.2765 3.86322C32.3975 4.01459 34.1003 5.72785 34.2081 7.88452L34.2282 8.28949H35.4483L36.1053 12.659L37.6968 12.1664L37.4832 7.88483C37.3703 5.6192 35.4965 3.84369 33.2291 3.85223L30.2765 3.86322Z" fill="#2A2F4F"/>
<path d="M37.3483 2.17316C39.0372 3.862 39.0372 6.60034 37.3483 8.28918C35.6595 9.97803 32.9211 9.97803 31.2323 8.28918L37.3483 2.17316Z" fill="#3D4159"/>
<path d="M31.2323 8.28919H25.9247L25.2673 12.659L23.6758 12.1664L23.8892 7.88452C24.0021 5.61951 25.8759 3.84338 28.1436 3.85193L35.8093 3.88092L36.8228 5.70496" fill="#3D4159"/>
<path d="M31.0959 3.86322C28.9749 4.01459 27.272 5.72785 27.1643 7.88452L27.1442 8.28949H25.9244L25.267 12.659L23.6755 12.1664L23.8892 7.88483C24.0021 5.6192 25.8759 3.84369 28.1433 3.85223L31.0959 3.86322Z" fill="#2A2F4F"/>
<path d="M28.4775 36.6205V38.1201C25.9036 39.3259 23.031 40 20 40C16.969 40 14.0955 39.3259 11.5216 38.1192V36.6205C11.5216 33.6612 13.5306 31.1722 16.2595 30.4425C16.3593 30.4156 16.4597 30.3909 16.5616 30.369C16.8326 30.3101 17.1109 30.2695 17.3935 30.2466C17.5665 30.2325 17.7405 30.2252 17.9169 30.2252H22.0816C22.5476 30.2252 23.0008 30.2744 23.4384 30.369C23.4637 30.3738 23.4891 30.3796 23.5135 30.3854C23.587 30.4025 23.6603 30.4205 23.7329 30.4401C23.7357 30.4407 23.7363 30.4407 23.7387 30.4416C24.4589 30.6342 25.1291 30.9494 25.7242 31.3632C27.3886 32.5177 28.4775 34.4415 28.4775 36.6205Z" fill="#3D4159"/>
<path d="M23.7543 30.369L23.7387 30.4416L21.6989 39.9283C21.5933 39.9371 21.4874 39.9454 21.3812 39.9527C21.2317 39.9625 21.0815 39.9713 20.9305 39.978C20.6219 39.9927 20.3119 40 20 40C19.6799 40 19.3625 39.9927 19.0466 39.9771C18.9038 39.9707 18.7607 39.9625 18.6179 39.9518C18.511 39.9445 18.4048 39.9371 18.2986 39.9283L16.2595 30.4425L16.2442 30.369H23.7543Z" fill="#66BAED"/>
<path d="M21.7163 32.533L19.9994 35.2863L18.2828 32.533" fill="#3D4159"/>
<path d="M21.3812 39.9527C21.2317 39.9625 21.0815 39.9713 20.9305 39.978C20.6219 39.9927 20.3119 40 20 40C19.6799 40 19.3625 39.9927 19.0466 39.9771C18.9038 39.9707 18.7607 39.9625 18.6179 39.9518L20 34.5697L21.3812 39.9527Z" fill="#3D4159"/>
<path d="M19.9991 32.8433L17.1198 34.4434L16.2439 30.3696L18.0328 29.3158" fill="#2BA1CF"/>
<path d="M19.9991 32.8433L22.8781 34.4434L23.754 30.3696L21.965 29.3158" fill="#2BA1CF"/>
<path d="M23.8629 35.867H24.7763L23.1812 39.7476C22.4432 39.866 21.6922 39.9435 20.9305 39.978L23.7329 30.4401L23.7543 30.369L25.7242 31.0123L23.8629 35.867Z" fill="#2A2F4F"/>
<path d="M19.0466 39.9771C18.284 39.942 17.5323 39.863 16.7944 39.7437L15.2008 35.867H16.1142L14.2523 31.0123L16.2228 30.369L16.2442 30.4401L19.0466 39.9771Z" fill="#2A2F4F"/>
<path d="M22.2812 27.7618V30.5618C22.2812 31.5872 21.6052 32.4536 20.6741 32.7414C20.4608 32.8076 20.2338 32.8433 19.9988 32.8433C18.7387 32.8433 17.7176 31.8219 17.7176 30.5618V27.7618H22.2812Z" fill="#EAB599"/>
<path d="M22.2812 30.3845V30.5621C22.2812 31.5872 21.6052 32.4536 20.6741 32.7417C19.834 32.4832 19.2023 31.7529 19.0857 30.8591C19.2383 30.8685 19.3915 30.8731 19.5453 30.8731C19.9771 30.8731 20.4004 30.8389 20.8124 30.7715C21.3205 30.6897 21.8112 30.5588 22.2812 30.3845Z" fill="#F6CAAE"/>
<path d="M13.7402 23.1726C13.7402 24.2288 12.9684 25.1047 11.958 25.2673C11.8475 25.285 11.734 25.2945 11.6183 25.2945C10.4462 25.2945 9.49615 24.3448 9.49615 23.1726C9.49615 22.0004 10.4459 21.0504 11.6183 21.0504C11.734 21.0504 11.8475 21.0599 11.958 21.0779C12.9684 21.2405 13.7402 22.1164 13.7402 23.1726Z" fill="#F6CAAE"/>
<path d="M13.7402 23.1726C13.7402 24.2288 12.9684 25.1047 11.958 25.2673C11.7746 24.5999 11.6766 23.8974 11.6766 23.1726C11.6766 22.4475 11.7746 21.7453 11.958 21.0779C12.9684 21.2405 13.7402 22.1164 13.7402 23.1726Z" fill="#EAB599"/>
<path d="M12.3767 23.1726C12.3767 23.5913 12.037 23.931 11.6183 23.931C11.1993 23.931 10.86 23.5913 10.86 23.1726C10.86 22.7536 11.1993 22.4142 11.6183 22.4142C12.037 22.4142 12.3767 22.7536 12.3767 23.1726Z" fill="#EAB599"/>
<path d="M26.2582 23.1726C26.2582 24.2288 27.03 25.1047 28.0405 25.2673C28.1506 25.285 28.2645 25.2945 28.3801 25.2945C29.5523 25.2945 30.5023 24.3448 30.5023 23.1726C30.5023 22.0004 29.5526 21.0504 28.3801 21.0504C28.2645 21.0504 28.1506 21.0599 28.0405 21.0779C27.03 21.2405 26.2582 22.1164 26.2582 23.1726Z" fill="#F6CAAE"/>
<path d="M26.2582 23.1726C26.2582 24.2288 27.03 25.1047 28.0405 25.2673C28.2239 24.5999 28.3218 23.8974 28.3218 23.1726C28.3218 22.4475 28.2239 21.7453 28.0405 21.0779C27.03 21.2405 26.2582 22.1164 26.2582 23.1726Z" fill="#EAB599"/>
<path d="M27.8943 19.0387V22.045C27.8943 25.9738 25.0241 29.2328 21.2662 29.8376C21.2537 29.8398 21.2402 29.8419 21.2277 29.8441C20.8279 29.9081 20.4178 29.9396 19.9991 29.9396C15.639 29.9396 12.1048 26.405 12.1048 22.0453V19.0387C12.1048 18.1207 12.2614 17.2385 12.5507 16.4188C13.6304 13.3463 16.5579 11.1435 19.9991 11.1435H19.9997C20.4178 11.1435 20.8286 11.1758 21.2289 11.239C25.0052 11.8289 27.8943 15.0967 27.8943 19.0387Z" fill="#EAB599"/>
<path d="M29.1385 23.1726C29.1385 23.5913 28.7991 23.931 28.3801 23.931C27.9614 23.931 27.6218 23.5913 27.6218 23.1726C27.6218 22.7536 27.9614 22.4142 28.3801 22.4142C28.7991 22.4142 29.1385 22.7536 29.1385 23.1726Z" fill="#EAB599"/>
<path d="M27.894 19.0387V22.045C27.894 25.9735 25.0241 29.2328 21.2662 29.8376C21.2534 29.8398 21.2402 29.8419 21.2274 29.8441C17.4515 29.2538 14.563 25.9863 14.563 22.045V19.0387C14.563 15.0967 17.4521 11.8289 21.2289 11.239C25.0052 11.8289 27.894 15.0967 27.894 19.0387Z" fill="#F6CAAE"/>
<path d="M18.3179 21.5851C18.3179 22.0798 17.9169 22.4808 17.4225 22.4808C16.9278 22.4808 16.5268 22.0798 16.5268 21.5851C16.5268 21.0907 16.9278 20.6897 17.4225 20.6897C17.9169 20.6897 18.3179 21.0907 18.3179 21.5851Z" fill="#3D4159"/>
<path d="M23.472 21.5851C23.472 22.0798 23.071 22.4808 22.5763 22.4808C22.0816 22.4808 21.6806 22.0798 21.6806 21.5851C21.6806 21.0907 22.0816 20.6897 22.5763 20.6897C23.071 20.6897 23.472 21.0907 23.472 21.5851Z" fill="#3D4159"/>
<path d="M18.1354 21.4273C18.1354 21.6391 17.9636 21.8109 17.7515 21.8109C17.5397 21.8109 17.3679 21.6391 17.3679 21.4273C17.3679 21.2152 17.5397 21.0434 17.7515 21.0434C17.9636 21.0434 18.1354 21.2152 18.1354 21.4273Z" fill="white"/>
<path d="M23.3331 21.4273C23.3331 21.6391 23.1613 21.8109 22.9495 21.8109C22.7374 21.8109 22.5656 21.6391 22.5656 21.4273C22.5656 21.2152 22.7374 21.0434 22.9495 21.0434C23.1613 21.0434 23.3331 21.2152 23.3331 21.4273Z" fill="white"/>
<path d="M20.8951 23.4891H19.1037C18.8904 23.4891 18.7173 23.316 18.7173 23.1027C18.7173 22.8891 18.8904 22.7164 19.1037 22.7164H20.8951C21.1084 22.7164 21.2814 22.8891 21.2814 23.1027C21.2811 23.316 21.1081 23.4891 20.8951 23.4891Z" fill="#EAB599"/>
<path d="M19.9994 25.9332C19.3384 25.9332 18.6771 25.7675 18.0747 25.4361C17.9047 25.3427 17.8424 25.1291 17.9361 24.9594C18.0295 24.7894 18.2431 24.7275 18.4131 24.8206C19.4064 25.3668 20.5924 25.3668 21.5857 24.8206C21.7557 24.7272 21.9693 24.7891 22.0627 24.9594C22.1564 25.1291 22.0941 25.3427 21.9241 25.4361C21.3214 25.7675 20.6604 25.9332 19.9994 25.9332Z" fill="#EAB599"/>
<path d="M27.8943 16.3104V19.39H26.4249V16.9781L15.8182 15.0073L13.5739 14.5901V19.39H12.1045V16.3101C12.1045 12.7994 14.95 9.95392 18.4601 9.95392H21.5387C21.6223 9.95392 21.7059 9.95544 21.7896 9.95972C25.1828 10.0903 27.8943 12.8833 27.8943 16.3104Z" fill="#2A2F4F"/>
<path d="M27.8943 16.3104V19.39H26.4249V16.9781L15.8182 15.0073C16.4026 12.2003 18.8379 10.0735 21.7896 9.95972C25.1828 10.0903 27.8943 12.8833 27.8943 16.3104Z" fill="#3D4159"/>
</g>
<defs>
<clipPath id="clip0_16_608">
<rect width="40" height="40" fill="white"/>
</clipPath>
</defs>
</svg>
