<svg width="45" height="45" viewBox="0 0 45 45" fill="none" xmlns="http://www.w3.org/2000/svg">
<path d="M40.1137 35.8552C42.5826 32.3516 44.0332 28.0788 44.0332 23.4668C44.0332 11.5743 34.3925 1.93359 22.5 1.93359C10.6075 1.93359 0.966797 11.5743 0.966797 23.4668C0.966797 28.0788 2.41743 32.3516 4.88628 35.8552H40.1137Z" fill="#FFCB37"/>
<path d="M38.466 16.0632V5.41345H32.4653V10.0625L38.466 16.0632Z" fill="#A0391E"/>
<path d="M35.4656 13.0628V5.41345H32.4652V10.0625L35.4656 13.0628Z" fill="#84260D"/>
<path d="M32.4653 7.95305C35.4061 7.95305 37.2514 7.95305 38.466 7.95305V5.32697H32.4653V7.95305Z" fill="#84260D"/>
<path d="M35.4656 5.32697H32.4652V7.95305C33.6269 7.95305 34.6171 7.95305 35.4656 7.95305V5.32697Z" fill="#631D0A"/>
<path d="M39.6986 4.20477C39.6986 3.52397 39.1467 2.97211 38.4659 2.97211C37.2985 2.97211 36.5213 2.97211 32.4652 2.97211C31.7844 2.97211 31.2325 3.52397 31.2325 4.20477C31.2325 4.88557 31.7844 5.43744 32.4652 5.43744C36.5204 5.43744 37.2973 5.43744 38.4659 5.43744C39.1468 5.43744 39.6986 4.88557 39.6986 4.20477Z" fill="#A0391E"/>
<path d="M34.3857 4.20477C34.3857 3.52397 34.9376 2.97211 35.6183 2.97211C34.8519 2.97211 33.8498 2.97211 32.4652 2.97211C31.7844 2.97211 31.2326 3.52397 31.2326 4.20477C31.2326 4.88557 31.7845 5.43744 32.4652 5.43744C33.8499 5.43744 34.852 5.43744 35.6183 5.43744C34.9376 5.43744 34.3857 4.88557 34.3857 4.20477Z" fill="#84260D"/>
<path d="M40.2356 20.894L22.5 3.15845L4.76447 20.894V35.6795C6.83315 38.6779 9.64213 41.1256 12.9279 42.7591H32.072C35.3578 41.1256 38.1668 38.6779 40.2355 35.6795V20.894H40.2356Z" fill="#FCECCD"/>
<path d="M25.9595 6.61791L22.5 3.15845L12.4893 13.1692L4.76447 20.894V35.6795C6.74025 38.5433 9.39244 40.9027 12.4893 42.5321V22.4191C12.4893 21.443 12.8625 20.5039 13.5325 19.7942L25.8767 6.71775L25.9595 6.61791Z" fill="#EAD3AC"/>
<path d="M41.6964 22.5374L22.5 3.34107L3.30366 22.5374C2.82237 23.0187 2.04172 23.0187 1.56043 22.5374C1.07906 22.056 1.07906 21.2757 1.56043 20.7942L21.6284 0.726232C22.1097 0.244943 22.8903 0.244943 23.3716 0.726232L43.4396 20.7942C43.921 21.2757 43.921 22.056 43.4396 22.5374C42.9582 23.0189 42.1778 23.0187 41.6964 22.5374Z" fill="#FF3C63"/>
<path d="M22.5 18.4697C24.1708 18.4697 25.5252 17.1153 25.5252 15.4445C25.5252 13.7737 24.1708 12.4193 22.5 12.4193C20.8292 12.4193 19.4748 13.7737 19.4748 15.4445C19.4748 17.1153 20.8292 18.4697 22.5 18.4697Z" fill="#AADAF2"/>
<path d="M8.23712 39.5974C9.64812 40.8459 11.2238 41.912 12.9279 42.7591C15.6989 42.7591 18.8345 42.7591 20.4686 42.7591V28.42C17.6741 28.42 10.4815 28.42 8.23712 28.42V39.5974Z" fill="#BC4C2E"/>
<path d="M12.4893 42.5339V28.42C10.6946 28.42 9.10003 28.42 8.23712 28.42V39.5974C9.52613 40.7379 10.953 41.7256 12.4893 42.5339Z" fill="#A0391E"/>
<path d="M20.4686 25.9547H8.23712V28.42H20.4686V25.9547Z" fill="#A0391E"/>
<path d="M12.4893 25.9547H8.23712V28.42H12.4893V25.9547Z" fill="#84260D"/>
<path d="M20.0441 23.4895C17.7367 23.4895 9.89817 23.4895 8.66163 23.4895C8.42714 23.4895 8.23712 23.6796 8.23712 23.914V25.9548C9.63704 25.9548 18.0462 25.9548 20.4686 25.9548V23.914C20.4686 23.6795 20.2786 23.4895 20.0441 23.4895Z" fill="#84260D"/>
<path d="M12.9138 23.4895C10.9224 23.4895 9.18968 23.4895 8.66163 23.4895C8.42723 23.4895 8.23712 23.6796 8.23712 23.914V25.9548C8.80085 25.9548 10.5012 25.9548 12.4893 25.9548V23.914C12.4893 23.6795 12.6794 23.4895 12.9138 23.4895Z" fill="#631D0A"/>
<path d="M36.7629 28.2679H24.5314V37.4265H36.7629V28.2679Z" fill="#AADAF2"/>
<path d="M30.6472 28.2679H24.5314V37.4265H30.6472V28.2679Z" fill="#8BCBEC"/>
<path d="M12.4893 42.5347C15.4802 44.1082 18.8857 45 22.5 45C26.1143 45 29.5198 44.1082 32.5107 42.5347C26.3733 42.5347 18.6253 42.5347 12.4893 42.5347Z" fill="#87DA8F"/>
<path d="M20.5072 42.5347C17.7131 42.5347 14.9695 42.5347 12.4893 42.5347C14.8837 43.7943 17.5438 44.6164 20.364 44.8946C19.5581 44.3471 19.6215 42.9895 20.5072 42.5347Z" fill="#44BC4D"/>
<path d="M37.8604 38.5557V37.8442C37.8604 37.5127 37.5916 37.2439 37.2601 37.2439H24.0341C23.7026 37.2439 23.4338 37.5127 23.4338 37.8442V39.1089C23.4338 39.4404 23.7026 39.7092 24.0341 39.7092H36.6368C37.0598 39.3408 37.4675 38.9556 37.8604 38.5557Z" fill="#EAD3AC"/>
<path d="M29.8499 39.1089V37.8442C29.8499 37.5127 30.1186 37.2439 30.4501 37.2439H24.0341C23.7026 37.2439 23.4338 37.5127 23.4338 37.8442V39.1089C23.4338 39.4404 23.7026 39.7092 24.0341 39.7092H30.4501C30.1187 39.7092 29.8499 39.4404 29.8499 39.1089Z" fill="#E0BF8D"/>
<path d="M36.7629 25.9547H24.5314V28.42H36.7629V25.9547Z" fill="#A0391E"/>
<path d="M30.6472 25.9547H24.5314V28.42H30.6472V25.9547Z" fill="#84260D"/>
<path d="M36.3384 23.4895C34.7667 23.4895 25.3972 23.4895 24.9559 23.4895C24.7215 23.4895 24.5314 23.6796 24.5314 23.914V25.9548C25.0848 25.9548 34.8213 25.9548 36.7629 25.9548V23.914C36.7629 23.6795 36.5728 23.4895 36.3384 23.4895Z" fill="#84260D"/>
<path d="M31.0716 23.4895C28.1889 23.4895 25.2005 23.4895 24.9559 23.4895C24.7214 23.4895 24.5314 23.6796 24.5314 23.914V25.9548C24.8256 25.9548 27.7139 25.9548 30.6471 25.9548V23.914C30.6471 23.6795 30.8372 23.4895 31.0716 23.4895Z" fill="#631D0A"/>
<path d="M17.8167 36.0382C17.4384 36.0382 17.1318 35.7317 17.1318 35.3534V34.5752C17.1318 34.1969 17.4384 33.8904 17.8167 33.8904C18.1949 33.8904 18.5015 34.1969 18.5015 34.5752V35.3534C18.5015 35.7317 18.1949 36.0382 17.8167 36.0382Z" fill="#84260D"/>
<path d="M19.4748 15.4445C19.4748 17.1153 20.8293 18.4697 22.5 18.4697V12.4193C20.8292 12.4193 19.4748 13.7737 19.4748 15.4445Z" fill="#8BCBEC"/>
<path d="M27.4844 4.83898L23.3716 0.726232C22.8903 0.244943 22.1098 0.244943 21.6284 0.726232L1.56044 20.7942C1.07897 21.2757 1.07897 22.0561 1.56044 22.5374C2.04182 23.0187 2.82228 23.0187 3.30366 22.5374L22.5 3.34107L25.8767 6.71773C25.3013 5.66296 26.3334 4.42774 27.4844 4.83898Z" fill="#FF0435"/>
<path d="M22.5 0C21.8192 0 21.2673 0.551865 21.2673 1.23267C21.2673 2.08239 21.2673 2.94407 21.2673 3.81445C21.2673 4.49525 21.8192 5.04712 22.5 5.04712C23.1808 5.04712 23.7327 4.49525 23.7327 3.81445C23.7327 2.94372 23.7327 2.08204 23.7327 1.23267C23.7327 0.551865 23.1808 0 22.5 0Z" fill="#FF738D"/>
<path d="M22.5 3.15845C21.8192 3.15845 21.2673 2.60658 21.2673 1.92578C21.2673 2.55051 21.2673 3.1791 21.2673 3.81437C21.2673 4.49518 21.8192 5.04704 22.5 5.04704C23.1808 5.04704 23.7327 4.49518 23.7327 3.81437C23.7327 3.17884 23.7327 2.55033 23.7327 1.92578C23.7327 2.60658 23.1808 3.15845 22.5 3.15845Z" fill="#FF3C63"/>
</svg>
