<svg width="40" height="40" viewBox="0 0 40 40" fill="none" xmlns="http://www.w3.org/2000/svg">
<g clip-path="url(#clip0_16_509)">
<path d="M39.5905 20.4391C39.5905 31.2424 30.8328 40 20.0296 40C19.2163 40 18.4146 39.9503 17.6273 39.8538C13.0423 39.2926 8.99109 37.1457 5.95276 33.9771C3.10455 31.0071 1.14105 27.139 0.614929 22.8415C0.518494 22.0541 0.46875 21.2524 0.46875 20.4391C0.46875 9.63593 9.22638 0.878296 20.0296 0.878296C30.8328 0.878296 39.5905 9.63593 39.5905 20.4391Z" fill="#F7C37D"/>
<path d="M11.1673 7.18567H35.918C36.5793 7.18567 37.1155 7.72186 37.1155 8.38318V25.1498C37.1155 25.8112 36.5793 26.3474 35.918 26.3474H11.1673C10.506 26.3474 9.96979 25.8112 9.96979 25.1498V8.38318C9.96979 7.72186 10.506 7.18567 11.1673 7.18567Z" fill="#FADEB9"/>
<path d="M12.7643 7.18567H35.918C36.5793 7.18567 37.1155 7.72186 37.1155 8.38318V25.1498C37.1155 25.8112 36.5793 26.3474 35.918 26.3474H12.7643C12.1027 26.3474 11.5665 25.8112 11.5665 25.1498V8.38318C11.5665 7.72186 12.1027 7.18567 12.7643 7.18567Z" fill="#FFF5F5"/>
<path d="M29.1315 20.7584H33.9218C34.3628 20.7584 34.7202 21.116 34.7202 21.557V23.1537C34.7202 23.5947 34.3628 23.952 33.9218 23.952H29.1315C28.6905 23.952 28.3331 23.5947 28.3331 23.1537V21.557C28.3331 21.116 28.6905 20.7584 29.1315 20.7584ZM20.3491 21.557V23.1537C20.3491 23.5947 20.7065 23.952 21.1475 23.952H25.9378C26.3788 23.952 26.7361 23.5947 26.7361 23.1537V21.557C26.7361 21.116 26.3788 20.7584 25.9378 20.7584H21.1475C20.7065 20.7584 20.3491 21.116 20.3491 21.557ZM28.3331 16.7664V18.3633C28.3331 18.8043 28.6905 19.1617 29.1315 19.1617H33.9218C34.3628 19.1617 34.7202 18.8043 34.7202 18.3633V16.7664C34.7202 16.3254 34.3628 15.968 33.9218 15.968H29.1315C28.6905 15.968 28.3331 16.3254 28.3331 16.7664ZM20.3491 16.7664V18.3633C20.3491 18.8043 20.7065 19.1617 21.1475 19.1617H25.9378C26.3788 19.1617 26.7361 18.8043 26.7361 18.3633V16.7664C26.7361 16.3254 26.3788 15.968 25.9378 15.968H21.1475C20.7065 15.968 20.3491 16.3254 20.3491 16.7664ZM28.3331 11.976V13.573C28.3331 14.0137 28.6905 14.3713 29.1315 14.3713H33.9218C34.3628 14.3713 34.7202 14.0137 34.7202 13.573V11.976C34.7202 11.535 34.3628 11.1777 33.9218 11.1777H29.1315C28.6905 11.1777 28.3331 11.535 28.3331 11.976ZM20.3491 11.976V13.573C20.3491 14.0137 20.7065 14.3713 21.1475 14.3713H25.9378C26.3788 14.3713 26.7361 14.0137 26.7361 13.573V11.976C26.7361 11.535 26.3788 11.1777 25.9378 11.1777H21.1475C20.7065 11.1777 20.3491 11.535 20.3491 11.976ZM12.3648 11.976V13.573C12.3648 14.0137 12.7225 14.3713 13.1635 14.3713H17.9538C18.3948 14.3713 18.7521 14.0137 18.7521 13.573V11.976C18.7521 11.535 18.3948 11.1777 17.9538 11.1777H13.1635C12.7225 11.1777 12.3648 11.535 12.3648 11.976Z" fill="#FDCBBB"/>
<path d="M11.1673 3.992H35.918C36.5793 3.992 37.1155 4.5282 37.1155 5.18951V8.78235H9.96979V5.18951C9.96979 4.5282 10.506 3.992 11.1673 3.992Z" fill="#FD4343"/>
<path d="M12.7643 3.992H35.918C36.5793 3.992 37.1155 4.5282 37.1155 5.18951V8.78235H11.5665V5.18951C11.5665 4.5282 12.1027 3.992 12.7643 3.992Z" fill="#FD5757"/>
<path d="M25.5386 27.9041C25.5386 33.2733 22.2772 37.8802 17.6276 39.8529C15.8594 39.6365 14.1641 39.184 12.5742 38.5281C10.5539 37.6944 3.13812 30.7471 1.9873 28.0063C1.30615 26.3843 0.837402 24.6509 0.615845 22.8412C2.5885 18.1915 7.19543 14.9301 12.5647 14.9301C19.7299 14.9301 25.5386 20.7388 25.5386 27.9041Z" fill="#458FA4"/>
<path d="M12.5647 14.9301C13.1052 14.9301 13.638 14.9637 14.1614 15.0281C7.74933 15.8151 2.78412 21.2796 2.78412 27.9041V27.9254C2.78473 28.3594 2.19147 28.486 2.02179 28.0869C1.32202 26.4417 0.841064 24.6811 0.615845 22.8412C2.5885 18.1915 7.19543 14.9301 12.5647 14.9301Z" fill="#328091"/>
<path d="M23.1433 27.9041C23.1433 33.7466 18.407 38.483 12.5647 38.483C12.5302 38.483 12.4963 38.4821 12.4619 38.4818C7.74475 36.5009 3.9679 32.724 1.987 28.0069C1.98669 27.9724 1.98578 27.9385 1.98578 27.9041C1.98578 22.0618 6.72211 17.3254 12.5647 17.3254C18.407 17.3254 23.1433 22.0618 23.1433 27.9041Z" fill="#FFF5F5"/>
<path d="M18.7521 6.38733C18.7521 6.82831 18.3948 7.18567 17.9538 7.18567H16.3571C15.9161 7.18567 15.5585 6.82831 15.5585 6.38733C15.5585 5.94635 15.9161 5.58868 16.3571 5.58868H17.9538C18.3948 5.58868 18.7521 5.94635 18.7521 6.38733ZM33.1235 5.58868H31.5265C31.0858 5.58868 30.7281 5.94635 30.7281 6.38733C30.7281 6.82831 31.0858 7.18567 31.5265 7.18567H33.1235C33.5645 7.18567 33.9218 6.82831 33.9218 6.38733C33.9218 5.94635 33.5645 5.58868 33.1235 5.58868Z" fill="#F52C2C"/>
<path d="M33.1235 2.39532V7.18567H31.5265V2.39532C31.5265 1.95496 31.1685 1.59668 30.7281 1.59668C30.2881 1.59668 29.9298 1.95496 29.9298 2.39532V3.992H28.3331V2.39532C28.3331 1.07452 29.4077 0 30.7281 0C32.049 0 33.1235 1.07452 33.1235 2.39532ZM15.5585 0C14.238 0 13.1635 1.07452 13.1635 2.39532V3.992H14.7601V2.39532C14.7601 1.95496 15.1184 1.59668 15.5585 1.59668C15.9988 1.59668 16.3571 1.95496 16.3571 2.39532V7.18567H17.9538V2.39532C17.9538 1.07452 16.8793 0 15.5585 0Z" fill="#C5D3DD"/>
<path d="M13.363 16.3672V30.7385C13.363 30.9589 13.1842 31.1377 12.9639 31.1377H12.1652C11.9449 31.1377 11.7661 30.9589 11.7661 30.7385V16.3672C11.7661 16.1469 11.9449 15.968 12.1652 15.968H12.9639C13.1842 15.968 13.363 16.1469 13.363 16.3672Z" fill="#B6C4CF"/>
<path d="M20.7483 28.7027H10.369C10.1486 28.7027 9.96979 28.5239 9.96979 28.3035V27.5049C9.96979 27.2845 10.1486 27.1057 10.369 27.1057H20.7483C20.9686 27.1057 21.1475 27.2845 21.1475 27.5049V28.3035C21.1475 28.5239 20.9686 28.7027 20.7483 28.7027Z" fill="#235967"/>
<path d="M8.61267 32.4207C8.76862 32.5766 8.76862 32.8293 8.61267 32.9852L6.91895 34.679C6.86554 34.7324 6.80023 34.7663 6.73187 34.783C6.37024 34.4476 6.02142 34.0985 5.68604 33.7369C5.70282 33.6685 5.73639 33.6032 5.7901 33.5498L7.48352 31.8561C7.63947 31.7001 7.89215 31.7001 8.0481 31.8561L8.61267 32.4207ZM6.57654 28.3035V27.5049C6.57654 27.2846 6.39771 27.1057 6.17737 27.1057H3.78204C3.56171 27.1057 3.38287 27.2846 3.38287 27.5049V28.3035C3.38287 28.5239 3.56171 28.7027 3.78204 28.7027H6.17737C6.39771 28.7027 6.57654 28.5239 6.57654 28.3035ZM17.081 23.9523C17.2369 24.1083 17.4896 24.1083 17.6456 23.9523L19.3393 22.2586C19.4952 22.1027 19.4952 21.85 19.3393 21.694L18.7747 21.1295C18.6188 20.9735 18.3661 20.9735 18.2101 21.1295L16.5164 22.8232C16.3605 22.9791 16.3605 23.2318 16.5164 23.3878L17.081 23.9523ZM12.9639 33.8922H12.1652C11.9449 33.8922 11.7661 34.0711 11.7661 34.2914V36.6867C11.7661 36.9071 11.9449 37.0859 12.1652 37.0859H12.9639C13.1842 37.0859 13.363 36.9071 13.363 36.6867V34.2914C13.363 34.0711 13.1842 33.8922 12.9639 33.8922ZM17.6456 31.8561C17.4896 31.7001 17.2369 31.7001 17.081 31.8561L16.5164 32.4207C16.3605 32.5766 16.3605 32.8293 16.5164 32.9852L18.2101 34.679C18.3661 34.8349 18.6188 34.8349 18.7747 34.679L19.3393 34.1144C19.4952 33.9585 19.4952 33.7058 19.3393 33.5498L17.6456 31.8561ZM6.91895 21.1295C6.763 20.9735 6.51031 20.9735 6.35437 21.1295L5.78979 21.694C5.63385 21.85 5.63385 22.1027 5.78979 22.2586L7.48352 23.9523C7.63947 24.1083 7.89215 24.1083 8.0481 23.9523L8.61267 23.3878C8.76862 23.2318 8.76862 22.9791 8.61267 22.8232L6.91895 21.1295Z" fill="#D9E7EC"/>
</g>
<defs>
<clipPath id="clip0_16_509">
<rect width="40" height="40" fill="white"/>
</clipPath>
</defs>
</svg>
