<svg width="40" height="40" viewBox="0 0 40 40" fill="none" xmlns="http://www.w3.org/2000/svg">
<g clip-path="url(#clip0_16_524)">
<path d="M31.7241 12.4138V0.846906C31.7242 0.639787 31.6311 0.443615 31.4707 0.312605C31.3103 0.181596 31.0995 0.129621 30.8966 0.171044C21.4559 2.30622 20.1614 9.14759 20.0207 10.2069C20.0069 10.2966 20 10.3448 20 10.3448C20 10.3448 19.9931 10.2966 19.9793 10.2069C19.8414 9.14759 18.5441 2.30622 9.10484 0.171044C8.9019 0.129621 8.6911 0.181596 8.53068 0.312605C8.37026 0.443615 8.27721 0.639787 8.27725 0.846906V12.4138H31.7241Z" fill="#B19046"/>
<path d="M1.64139 5.87587L3.62966 3.39311C3.94264 2.99999 4.44463 2.80817 4.94001 2.89242C13.5124 4.42552 20 9.0069 20 10.3448C20 9.0069 26.4876 4.42552 35.0586 2.89242C35.554 2.80817 36.056 2.99999 36.369 3.39311L38.3573 5.87587V17.931H1.64139V5.87587Z" fill="#E4C05C"/>
<path d="M39.0345 5.57656L23.1724 12.5559C22.9214 12.6654 22.759 12.9131 22.7586 13.1869V13.1035C22.7586 12.7226 22.4499 12.4138 22.069 12.4138H17.931C17.5501 12.4138 17.2414 12.7226 17.2414 13.1035V13.1869C17.241 12.9131 17.0786 12.6654 16.8276 12.5559L0.965517 5.57656C0.752587 5.48363 0.507178 5.50415 0.31264 5.63116C0.118102 5.75816 0.000584014 5.97458 0 6.20691V32.2869C0.000415048 32.5608 0.162812 32.8084 0.413793 32.9179L16.2759 39.8973C16.4889 39.9902 16.7345 39.9696 16.929 39.8425C17.1236 39.7153 17.241 39.4987 17.2414 39.2662V39.3104C17.2414 39.6912 17.5501 40 17.931 40H22.069C22.4499 40 22.7586 39.6912 22.7586 39.3104V39.2662C22.759 39.4987 22.8764 39.7153 23.071 39.8425C23.2655 39.9696 23.5111 39.9902 23.7241 39.8973L39.5862 32.9179C39.8372 32.8084 39.9996 32.5608 40 32.2869V6.20691C39.9994 5.97458 39.8819 5.75816 39.6874 5.63116C39.4928 5.50415 39.2474 5.48363 39.0345 5.57656Z" fill="#C03A2B"/>
<path d="M22.069 12.4138H17.9311C17.5502 12.4138 17.2414 12.7226 17.2414 13.1034V39.3103C17.2414 39.6912 17.5502 40 17.9311 40H22.069C22.4499 40 22.7586 39.6912 22.7586 39.3103V13.1034C22.7586 12.7226 22.4499 12.4138 22.069 12.4138Z" fill="#E64C3C"/>
<path d="M22.069 16.5517H17.9311C17.5502 16.5517 17.2414 16.8605 17.2414 17.2414V18.6207C17.2414 19.0016 17.5502 19.3103 17.9311 19.3103H22.069C22.4499 19.3103 22.7586 19.0016 22.7586 18.6207V17.2414C22.7586 16.8605 22.4499 16.5517 22.069 16.5517Z" fill="#F0C419"/>
<path d="M22.069 33.1035H17.9311C17.5502 33.1035 17.2414 33.4122 17.2414 33.7931V35.1724C17.2414 35.5533 17.5502 35.8621 17.9311 35.8621H22.069C22.4499 35.8621 22.7586 35.5533 22.7586 35.1724V33.7931C22.7586 33.4122 22.4499 33.1035 22.069 33.1035Z" fill="#F0C419"/>
<path d="M36.8455 18.8069L26.5007 23.6752C26.287 23.7758 26.0367 23.7601 25.8374 23.6335C25.638 23.507 25.5172 23.2872 25.5172 23.051V17.6793C25.5172 17.4121 25.6714 17.169 25.9131 17.0552L36.2579 12.1869C36.4716 12.0863 36.7219 12.102 36.9213 12.2286C37.1207 12.3551 37.2414 12.5749 37.2414 12.811V18.1828C37.2415 18.4499 37.0872 18.6931 36.8455 18.8069V18.8069Z" fill="#FB7B76"/>
<path d="M3.15447 18.8069L13.4993 23.6752C13.713 23.7758 13.9632 23.7601 14.1626 23.6335C14.362 23.507 14.4828 23.2872 14.4827 23.051V17.6793C14.4828 17.4121 14.3286 17.169 14.0869 17.0552L3.74205 12.1869C3.52839 12.0863 3.27811 12.102 3.07872 12.2286C2.87932 12.3551 2.75854 12.5749 2.75861 12.811V18.1828C2.75853 18.4499 2.91276 18.6931 3.15447 18.8069V18.8069Z" fill="#FB7B76"/>
<path d="M22.069 16.5517H17.9311C17.5502 16.5517 17.2414 16.8605 17.2414 17.2414V18.6207C17.2414 19.0016 17.5502 19.3103 17.9311 19.3103H22.069C22.4499 19.3103 22.7586 19.0016 22.7586 18.6207V17.2414C22.7586 16.8605 22.4499 16.5517 22.069 16.5517Z" fill="#F0C419"/>
<path d="M22.069 33.1035H17.9311C17.5502 33.1035 17.2414 33.4122 17.2414 33.7931V35.1724C17.2414 35.5533 17.5502 35.8621 17.9311 35.8621H22.069C22.4499 35.8621 22.7586 35.5533 22.7586 35.1724V33.7931C22.7586 33.4122 22.4499 33.1035 22.069 33.1035Z" fill="#F0C419"/>
<path d="M14.4828 28.2759C14.3812 28.2761 14.2808 28.2537 14.189 28.2104L2.46483 22.6931C2.24184 22.5882 2.0918 22.3722 2.07121 22.1266C2.05061 21.881 2.16261 21.6431 2.365 21.5025C2.56739 21.3619 2.82943 21.3399 3.05241 21.4448L14.7765 26.9621C15.0689 27.0995 15.2267 27.4215 15.1562 27.7367C15.0857 28.052 14.8058 28.2761 14.4828 28.2759V28.2759Z" fill="#F29C1F"/>
<path d="M13.0876 31.0676C12.986 31.0678 12.8856 31.0454 12.7938 31.0021L3.86206 26.7972C3.63184 26.6969 3.47434 26.4794 3.4509 26.2294C3.42745 25.9794 3.54177 25.7363 3.74933 25.595C3.9569 25.4536 4.22489 25.4363 4.44896 25.5497L13.3834 29.7566C13.6717 29.8961 13.8259 30.2157 13.7558 30.5282C13.6858 30.8406 13.4099 31.0638 13.0896 31.0669L13.0876 31.0676Z" fill="#F29C1F"/>
<path d="M25.5172 28.2759C25.1942 28.2761 24.9143 28.052 24.8438 27.7367C24.7733 27.4215 24.9311 27.0995 25.2235 26.9621L36.9476 21.4449C37.2923 21.2826 37.7033 21.4305 37.8655 21.7752C38.0278 22.1199 37.8799 22.5309 37.5352 22.6931L25.811 28.2104C25.7191 28.2536 25.6188 28.2759 25.5172 28.2759V28.2759Z" fill="#F29C1F"/>
<path d="M26.9124 31.0676C26.5922 31.0645 26.3163 30.8413 26.2462 30.5289C26.1761 30.2164 26.3304 29.8968 26.6186 29.7573L35.5531 25.5504C35.7772 25.437 36.0451 25.4543 36.2527 25.5957C36.4603 25.737 36.5746 25.9801 36.5512 26.2301C36.5277 26.4801 36.3702 26.6976 36.14 26.7979L27.2062 31.0048C27.1141 31.0471 27.0138 31.0685 26.9124 31.0676V31.0676Z" fill="#F29C1F"/>
</g>
<defs>
<clipPath id="clip0_16_524">
<rect width="40" height="40" fill="white"/>
</clipPath>
</defs>
</svg>
