<svg id="Capa_1" enable-background="new 0 0 512 512" height="512" viewBox="0 0 512 512" width="512" xmlns="http://www.w3.org/2000/svg"><g><g><g><path d="m161.03 445.301c-14.683-14.406-26.753-30.456-36.21-47.565-17.338-31.366 7.264-69.211 43.032-66.942 48.065 3.049 98.12-6.711 130.943-39.534 32.822-32.822 42.582-82.873 39.529-130.936-2.283-35.932 35.781-60.341 67.261-42.867 16.848 9.352 32.666 21.244 46.893 35.674 79.78 80.921 79.296 210.402-1.056 290.755-80.244 80.244-209.388 80.891-290.392 1.415z" fill="#fcca9f"/></g><path d="m363.51 340.96c0 10.787-7.213 20.599-18.054 23.502-12.661 3.401-25.744-3.845-29.588-16.375l-17.339-56.556c.087-.087.184-.184.271-.271 20.036-20.036 31.484-46.506 36.65-75.022l27.433 119.253c.421 1.83.627 3.66.627 5.469z" fill="#fcb982"/><path d="m296.329 293.653-6.173 35.036c-11.74 66.607-56.989 117.444-111.109 132.379-6.227-4.852-12.249-10.105-18.022-15.769-14.675-14.404-26.751-30.455-36.206-47.567-17.339-31.365 7.267-69.206 43.029-66.942 46.874 2.978 95.643-6.227 128.481-37.137z" fill="#fcb982"/><g><path d="m451.42 443.892c-57.163 57.163-139.148 73.928-210.856 50.112 60.542 12.628 125.957-4.668 173.058-51.769 73.928-73.928 74.372-193.062.975-267.51-13.094-13.278-27.65-24.217-43.148-32.827-9.444-5.242-19.527-6.379-28.755-4.397 10.7-22.191 38.729-33.455 62.892-20.047 16.852 9.357 32.664 21.249 46.895 35.675 79.777 80.924 79.289 210.401-1.061 290.763z" fill="#fcb982"/></g><g><circle cx="408.661" cy="394.77" fill="#fb8627" r="28.174"/><path d="m436.84 394.766c0 15.559-12.614 28.173-28.184 28.173-5.604 0-10.831-1.639-15.216-4.463 12.237-.964 21.883-11.218 21.883-23.71 0-12.503-9.657-22.747-21.905-23.699 4.385-2.835 9.624-4.474 15.238-4.474 15.57-.001 28.184 12.613 28.184 28.173z" fill="#fb7722"/></g><g><g><circle cx="447.699" cy="307.622" fill="#fee265" r="28.174"/><path d="m475.878 307.618c0 15.559-12.614 28.173-28.184 28.173-5.604 0-10.831-1.639-15.216-4.463 12.237-.964 21.883-11.218 21.883-23.71 0-12.503-9.657-22.747-21.905-23.699 4.385-2.835 9.624-4.474 15.238-4.474 15.57 0 28.184 12.613 28.184 28.173z" fill="#fdd330"/></g><g><circle cx="321.513" cy="433.807" fill="#64b9fc" r="28.174"/><path d="m349.692 433.803c0 15.559-12.614 28.173-28.184 28.173-5.604 0-10.831-1.639-15.216-4.463 12.237-.964 21.883-11.218 21.883-23.71 0-12.503-9.657-22.747-21.905-23.699 4.385-2.835 9.624-4.474 15.238-4.474 15.571 0 28.184 12.614 28.184 28.173z" fill="#1c96f9"/></g></g><g><g><circle cx="421.896" cy="217.408" fill="#27d1b3" r="28.174"/><path d="m450.075 217.404c0 15.559-12.614 28.173-28.184 28.173-5.604 0-10.831-1.639-15.216-4.463 12.237-.964 21.883-11.218 21.883-23.71 0-12.503-9.657-22.747-21.905-23.699 4.385-2.835 9.624-4.474 15.238-4.474 15.571 0 28.184 12.613 28.184 28.173z" fill="#20b69f"/></g><g><circle cx="231.299" cy="408.008" fill="#685e67" r="28.174"/><path d="m259.478 408.004c0 15.559-12.614 28.173-28.184 28.173-5.604 0-10.831-1.639-15.216-4.463 12.237-.964 21.883-11.218 21.883-23.71 0-12.503-9.657-22.747-21.905-23.699 4.385-2.835 9.624-4.474 15.238-4.474 15.571 0 28.184 12.614 28.184 28.173z" fill="#554e55"/></g></g></g><g><path d="m286.534 132.563c9.496-.446 16.954 8.001 15.303 17.364l-25.178 142.792c-15.501 87.909-89.361 148.362-164.958 135.032-75.611-13.333-124.326-95.4-108.825-183.308l25.178-142.79c1.651-9.362 11.548-14.749 20.319-11.082 32.999 13.797 73.083 25.497 116.924 33.227 43.843 7.73 85.502 10.443 121.237 8.765z" fill="#f2eff2"/><path d="m301.834 149.919-25.179 142.799c-15.501 87.909-89.361 148.362-164.956 135.032-6.011-1.06-11.87-2.559-17.523-4.459 69.002 1.741 132.711-55.913 146.979-136.833l24.15-136.963c1.31-7.427-3.123-14.286-9.761-16.57 10.73.237 21.088.108 30.994-.357 9.498-.446 16.946 7.998 15.296 17.351z" fill="#e1dde1"/><g fill="#685e67"><path d="m177 230.398c6.945-11.66 18.474-23.833 37.46-29.71 13.213-4.09 26.668 5.71 27.139 19.534.351 10.29-6.757 19.335-16.843 21.409-9.322 1.917-21.251 4.623-32.903 7.982-11.373 3.279-20.91-9.045-14.853-19.215z"/><path d="m117.839 219.966c-2.538-13.332-9.208-28.714-25.04-40.73-11.017-8.362-27.013-3.755-32.184 9.073-3.849 9.55-.263 20.48 8.505 25.878 8.104 4.989 18.388 11.612 28.189 18.754 9.567 6.972 22.743-1.347 20.53-12.975z"/></g><g><path d="m223.332 298.971c4.363-1.44 8.398 2.878 6.714 7.152-8.995 22.826-22.687 42.549-40.009 57.285-21.968 18.665-47.164 26.643-70.94 22.451-23.793-4.195-44.742-20.31-59.001-45.363-11.237-19.771-17.344-42.986-17.998-67.512-.122-4.593 5.146-7.272 8.754-4.427 21.922 17.282 50.37 30.233 82.595 35.915 32.225 5.683 63.386 3.243 89.885-5.501z" fill="#685e67"/><path d="m230.046 306.124c-8.996 22.828-22.69 42.551-40.013 57.28-21.966 18.672-47.159 26.645-70.934 22.453-10.261-1.809-19.987-5.834-28.871-11.832 22.239 2.294 45.415-5.838 65.812-23.159 14.038-11.942 25.696-27.164 34.4-44.654 11.528-1.388 22.562-3.841 32.895-7.243 4.356-1.443 8.4 2.878 6.711 7.155z" fill="#554e55"/></g></g><g><g><path d="m322.89 114.617c-7.522-28.071 21.388-75.262-42.553-105.989-5.059-2.431-11.178-.792-14.344 3.844-40.012 58.581 8.62 84.995 16.142 113.066z" fill="#fddd45"/></g><path d="m322.89 114.62-24.667 6.61c-4.304-27.706 18.283-70.751-37.638-100.123 1.589-2.803 3.378-5.681 5.403-8.638 3.17-4.637 9.289-6.268 14.346-3.838 63.938 30.722 35.037 77.918 42.556 105.989z" fill="#f8c52d"/><path d="m322.891 114.621-40.75 10.919c-5.159-19.254-29.666-37.737-31.636-66.351 8.97 14.7 25.191 22.677 40.661 18.532 15.459-4.142 25.51-19.146 25.942-36.354 12.598 25.753.624 53.999 5.783 73.254z" fill="#fc9744"/><path d="m322.89 114.62-24.667 6.61c-2.04-13.165 1.983-29.802.775-46.776 10.952-6.379 17.748-18.991 18.107-33.081 12.597 25.746.629 53.988 5.785 73.247z" fill="#fb7722"/><path d="m378.789 310.728-31.1-135.23-56.59 15.163 40.681 132.663c3.843 12.533 16.919 19.774 29.581 16.381 12.662-3.393 20.366-16.202 17.428-28.977z" fill="#3351c5"/><path d="m347.69 175.498 31.099 135.226c1.476 6.385.282 12.78-2.857 18.013-3.142 5.222-8.231 9.27-14.568 10.968-5.679 1.522-11.45.903-16.417-1.379.371-.508.702-1.029 1.029-1.562 3.139-5.233 4.321-11.625 2.857-18.013l-31.099-135.226z" fill="#2944ae"/><path d="m355.742 210.518-8.054-35.02-56.59 15.163 10.535 34.356z" fill="#2944ae"/><g><path d="m348.151 188.514-50.945 13.651c-3.065.821-6.214-.997-7.036-4.062l-19.903-74.279c-.821-3.065.997-6.214 4.062-7.036l50.945-13.651c3.065-.821 6.214.997 7.036 4.062l19.903 74.279c.821 3.065-.998 6.215-4.062 7.036z" fill="#eef4f5"/><path d="m332.308 107.197 19.904 74.281c.821 3.063-.999 6.215-4.062 7.036l-25.025 6.705c3.063-.821 4.883-3.973 4.062-7.036l-19.904-74.281c-.821-3.063-3.973-4.883-7.036-4.062l25.025-6.705c3.064-.821 6.216.999 7.036 4.062z" fill="#cbe5e7"/></g><path d="m277.175 153.065c-3.411 0-6.533-2.277-7.458-5.729-1.105-4.122 1.341-8.358 5.463-9.463l59.317-15.894c4.124-1.101 8.359 1.342 9.463 5.464 1.105 4.122-1.341 8.358-5.463 9.463l-59.317 15.894c-.67.179-1.343.265-2.005.265z" fill="#a9d3d8"/></g></g></svg>