<svg id="Capa_1" enable-background="new 0 0 512 512" height="512" viewBox="0 0 512 512" width="512" xmlns="http://www.w3.org/2000/svg"><g><g><g><g><g><g><path d="m170.589 331.356h-95.234c-41.55 0-75.355 33.804-75.355 75.355s33.805 75.355 75.355 75.355h95.234z" fill="#31a7fb"/></g><g><path d="m170.588 331.358v150.705h-95.23c-1.174 0-2.339-.031-3.492-.082-20.665-18.523-33.677-45.4-33.677-75.265s13.011-56.753 33.676-75.276c1.154-.052 2.318-.082 3.492-.082z" fill="#1c96f9"/></g></g><path d="m485.18 460.498h-340.632c-29.705 0-53.786-24.081-53.786-53.786 0-29.705 24.081-53.786 53.786-53.786h340.632z" fill="#f2eff2"/><g fill="#e1dde1"><path d="m392.564 422.728h-39.212c-4.268 0-7.726-3.459-7.726-7.726s3.459-7.726 7.726-7.726h39.212c4.268 0 7.726 3.459 7.726 7.726s-3.458 7.726-7.726 7.726z"/><path d="m313.68 422.728h-212.573c-4.267 0-7.726-3.459-7.726-7.726s3.459-7.726 7.726-7.726h212.573c4.268 0 7.726 3.459 7.726 7.726s-3.458 7.726-7.726 7.726z"/><path d="m449.036 352.925h36.144v107.573h-36.144z"/></g><g><path d="m493.348 482.066h-354.049c-41.551 0-75.355-33.805-75.355-75.355s33.805-75.355 75.355-75.355h354.049c10.3 0 18.65 8.35 18.65 18.65s-8.35 18.65-18.65 18.65h-354.049c-20.984 0-38.055 17.071-38.055 38.054 0 20.984 17.071 38.055 38.055 38.055h354.049c10.3 0 18.65 8.35 18.65 18.65 0 10.302-8.35 18.651-18.65 18.651z" fill="#64b9fc"/></g><g><path d="m512 350.004c0 10.305-8.355 18.65-18.65 18.65h-34.817c10.295 0 18.65-8.345 18.65-18.65 0-10.295-8.355-18.65-18.65-18.65h34.817c10.295 0 18.65 8.355 18.65 18.65z" fill="#31a7fb"/><path d="m512 463.419c0 10.295-8.355 18.65-18.65 18.65h-34.817c10.295 0 18.65-8.355 18.65-18.65 0-10.305-8.355-18.65-18.65-18.65h34.817c10.295 0 18.65 8.344 18.65 18.65z" fill="#1c96f9"/></g></g></g><g><g><g><g><path d="m191.192 180.645h-115.837c-41.55 0-75.355 33.804-75.355 75.355s33.805 75.355 75.355 75.355h115.837z" fill="#3351c5"/></g><g><path d="m191.191 180.642v150.716h-115.833c-1.174 0-2.339-.031-3.492-.082-20.666-18.523-33.677-45.411-33.677-75.276s13.011-56.753 33.677-75.275c1.154-.051 2.318-.082 3.492-.082h115.833z" fill="#2944ae"/></g></g><path d="m485.18 309.786h-340.632c-29.705 0-53.786-24.081-53.786-53.786 0-29.705 24.081-53.786 53.786-53.786h340.632z" fill="#f2eff2"/><path d="m449.036 202.213h36.144v107.573h-36.144z" fill="#e1dde1"/><g><path d="m493.348 331.355h-354.049c-41.551 0-75.355-33.805-75.355-75.355s33.805-75.355 75.355-75.355h354.049c10.3 0 18.65 8.35 18.65 18.65s-8.35 18.65-18.65 18.65h-354.049c-20.984 0-38.055 17.071-38.055 38.054 0 20.984 17.071 38.055 38.055 38.055h354.049c10.3 0 18.65 8.35 18.65 18.65 0 10.301-8.35 18.651-18.65 18.651z" fill="#5169cd"/></g><g><path d="m512 312.707c0 10.295-8.355 18.65-18.65 18.65h-34.817c10.295 0 18.65-8.355 18.65-18.65 0-10.305-8.355-18.65-18.65-18.65h34.817c10.295 0 18.65 8.345 18.65 18.65z" fill="#3351c5"/></g></g></g><g><g><g><g><path d="m217.977 29.933h-95.234c-41.551 0-75.355 33.804-75.355 75.355s33.805 75.355 75.355 75.355h95.234z" fill="#27d1b3"/></g><g><path d="m217.976 29.937v150.705h-95.23c-1.174 0-2.339-.031-3.492-.082-20.665-18.523-33.677-45.41-33.677-75.275s13.011-56.742 33.677-75.265c1.154-.052 2.318-.082 3.492-.082h95.23z" fill="#20b69f"/></g></g><path d="m450.154 159.075h-258.218c-29.705 0-53.786-24.081-53.786-53.786 0-29.705 24.081-53.786 53.786-53.786h258.217v107.572z" fill="#f2eff2"/><path d="m414.01 51.502h36.144v107.573h-36.144z" fill="#e1dde1"/><g><path d="m458.322 180.643h-271.635c-41.551 0-75.355-33.805-75.355-75.355s33.805-75.355 75.355-75.355h271.634c10.3 0 18.65 8.35 18.65 18.65s-8.35 18.65-18.65 18.65h-271.634c-20.984 0-38.055 17.071-38.055 38.054 0 20.984 17.071 38.055 38.055 38.055h271.634c10.3 0 18.65 8.35 18.65 18.65.001 10.301-8.349 18.651-18.649 18.651z" fill="#64e0c4"/></g><g fill="#27d1b3"><path d="m476.974 48.581c0 10.305-8.355 18.65-18.65 18.65h-34.817c10.295 0 18.65-8.345 18.65-18.65 0-10.295-8.355-18.65-18.65-18.65h34.817c10.295 0 18.65 8.355 18.65 18.65z"/><path d="m476.974 161.996c0 10.295-8.355 18.65-18.65 18.65h-34.817c10.295 0 18.65-8.355 18.65-18.65 0-10.305-8.355-18.65-18.65-18.65h34.817c10.295-.001 18.65 8.344 18.65 18.65z"/></g><g fill="#e1dde1"><path d="m450.154 108.455h-177.556c-4.268 0-7.726-3.459-7.726-7.726s3.459-7.726 7.726-7.726h177.556z"/><path d="m239.244 108.455h-37.346c-4.267 0-7.726-3.459-7.726-7.726s3.459-7.726 7.726-7.726h37.346c4.267 0 7.726 3.459 7.726 7.726s-3.458 7.726-7.726 7.726z"/></g></g></g></g><g><path d="m414.721 251.44-70.587-70.587c-4.847-4.846-12.704-4.846-17.551 0l-70.587 70.587z" fill="#fddd45"/><path d="m317.783 207.207 44.234 44.234h52.696l-70.582-70.582c-4.846-4.847-12.704-4.855-17.551-.009l-26.348 26.348c4.847-4.846 12.704-4.838 17.551.009z" fill="#f8c52d"/><path d="m485.18 259.167h-330.67c-4.267 0-7.726-3.459-7.726-7.726s3.459-7.726 7.726-7.726h330.67z" fill="#e1dde1"/></g></g></svg>