<svg width="43" height="43" viewBox="0 0 43 43" fill="none" xmlns="http://www.w3.org/2000/svg">
<path d="M21.2842 31.7644C27.1491 31.7644 31.9036 27.0099 31.9036 21.145C31.9036 15.2801 27.1491 10.5256 21.2842 10.5256C15.4193 10.5256 10.6648 15.2801 10.6648 21.145C10.6648 27.0099 15.4193 31.7644 21.2842 31.7644Z" fill="#E7E049"/>
<path d="M23.249 10.7077C26.1906 12.5959 28.1397 15.8958 28.1397 19.6508C28.1397 25.5157 23.3851 30.2702 17.5203 30.2702C16.8489 30.2702 16.1923 30.2072 15.5555 30.0881C17.2083 31.149 19.1744 31.7644 21.2842 31.7644C27.1491 31.7644 31.9036 27.0098 31.9036 21.145C31.9036 15.9514 28.1751 11.6293 23.249 10.7077Z" fill="#F58C3B"/>
<path d="M20.5811 33.83H21.9873V42.4292H20.5811V33.83Z" fill="#F58C3B"/>
<path d="M33.9692 20.4419H42.5684V21.8481H33.9692V20.4419Z" fill="#F58C3B"/>
<path d="M0 20.4419H8.59922V21.8481H0V20.4419Z" fill="#F58C3B"/>
<path d="M20.5811 0H21.9873V8.46009H20.5811V0Z" fill="#F58C3B"/>
<path d="M29.8091 4.97168L31.0269 5.6748L28.2348 10.5107L27.017 9.80761L29.8091 4.97168Z" fill="#E7E049"/>
<path d="M36.7545 11.4006L37.4577 12.6184L32.6218 15.4105L31.9187 14.1926L36.7545 11.4006Z" fill="#E7E049"/>
<path d="M32.6207 26.8777L37.4565 29.6698L36.7534 30.8876L31.9176 28.0955L32.6207 26.8777Z" fill="#E7E049"/>
<path d="M28.2364 31.7781L31.0286 36.6141L29.8108 37.3173L27.0186 32.4813L28.2364 31.7781Z" fill="#E7E049"/>
<path d="M14.3324 31.778L15.5502 32.4811L12.7581 37.3171L11.5403 36.6139L14.3324 31.778Z" fill="#E7E049"/>
<path d="M9.94793 26.8783L10.6511 28.0961L5.8152 30.8882L5.11208 29.6704L9.94793 26.8783Z" fill="#E7E049"/>
<path d="M5.81416 11.401L10.6501 14.1931L9.94697 15.4109L5.11103 12.6188L5.81416 11.401Z" fill="#E7E049"/>
<path d="M12.7589 4.9715L15.551 9.80743L14.3332 10.5106L11.5411 5.67462L12.7589 4.9715Z" fill="#E7E049"/>
</svg>
