<svg width="41" height="27" viewBox="0 0 41 27" fill="none" xmlns="http://www.w3.org/2000/svg">
<path d="M20.5 8.22656C13.9572 8.22656 8.63477 13.549 8.63477 20.0918C8.63477 22.1774 9.18452 24.2284 10.2235 26.0257H30.7765C31.8155 24.2284 32.3652 22.1774 32.3652 20.0918C32.3652 13.549 27.0428 8.22656 20.5 8.22656ZM20.5 5.58984C21.2287 5.58984 21.8184 5.00019 21.8184 4.27148V1.63477C21.8184 0.906064 21.2287 0.316406 20.5 0.316406C19.7713 0.316406 19.1816 0.906064 19.1816 1.63477V4.27148C19.1816 5.00019 19.7713 5.58984 20.5 5.58984ZM4.67969 18.7734H2.04297C1.31427 18.7734 0.724609 19.3631 0.724609 20.0918C0.724609 20.8205 1.31427 21.4102 2.04297 21.4102H4.67969C5.40839 21.4102 5.99805 20.8205 5.99805 20.0918C5.99805 19.3631 5.40839 18.7734 4.67969 18.7734ZM38.957 18.7734H36.3203C35.5916 18.7734 35.002 19.3631 35.002 20.0918C35.002 20.8205 35.5916 21.4102 36.3203 21.4102H38.957C39.6857 21.4102 40.2754 20.8205 40.2754 20.0918C40.2754 19.3631 39.6857 18.7734 38.957 18.7734ZM37.6258 10.2041C37.2602 9.57199 36.4504 9.35437 35.8247 9.72132L33.542 11.0397C32.9111 11.4041 32.6948 12.2099 33.0592 12.8408C33.4239 13.4722 34.2317 13.6868 34.8604 13.3236L37.1431 12.0052C37.7738 11.6409 37.9901 10.835 37.6258 10.2041ZM27.751 7.53258C28.3784 7.89504 29.1868 7.68234 29.5521 7.04979L30.8705 4.7671C31.2349 4.13622 31.0186 3.33026 30.3877 2.96596C29.7581 2.59901 28.9509 2.81663 28.5866 3.44874L27.2682 5.73143C26.9038 6.36231 27.1201 7.16827 27.751 7.53258ZM11.4479 7.04979C11.8125 7.6812 12.6203 7.89574 13.249 7.53258C13.8799 7.16818 14.0962 6.36231 13.7318 5.73143L12.4134 3.44874C12.0465 2.81663 11.2405 2.59901 10.6123 2.96596C9.98143 3.33035 9.76513 4.13622 10.1295 4.7671L11.4479 7.04979ZM7.458 11.0397L5.1753 9.72132C4.54442 9.35437 3.73979 9.57199 3.37416 10.2041C3.00977 10.835 3.22606 11.6409 3.85694 12.0052L6.13964 13.3236C6.76709 13.6861 7.57551 13.4734 7.94078 12.8408C8.30518 12.2099 8.08888 11.404 7.458 11.0397Z" fill="url(#paint0_linear_16_1243)"/>
<defs>
<linearGradient id="paint0_linear_16_1243" x1="20.5" y1="26.0257" x2="20.5" y2="0.316406" gradientUnits="userSpaceOnUse">
<stop stop-color="#FD5900"/>
<stop offset="1" stop-color="#FFDE00"/>
</linearGradient>
</defs>
</svg>
